<?xml version="1.0" encoding="UTF-8"?>
<svg version="1.1" xmlns="http://www.w3.org/2000/svg" width="2000" height="2000">
<path d="M0 0 C4.50394948 0.56537765 9.01799111 1.03265269 13.5322876 1.50689697 C23.71507315 2.58863119 33.88116999 3.79026324 44.04693604 5.02050781 C46.50100802 5.31472126 48.95579882 5.60140246 51.41119385 5.88433838 C144.05362009 16.57008766 237.9711471 35.31947953 507.63775635 173.33111572 C508.53863728 174.39635585 509.43969523 175.46144627 510.34088135 176.52642822 C526.74997916 196.18630931 540.2289552 219.80108116 544.63775635 245.33111572 C544.96775635 245.33111572 545.29775635 245.33111572 545.63775635 245.33111572 C545.85689697 244.35013916 546.0760376 243.3691626 546.30181885 242.35845947 C555.26743614 203.61401174 579.77893178 170.77614538 610.63775635 146.33111572 C611.77092609 145.39823181 612.90235426 144.46322953 614.0322876 143.52642822 C627.92233119 132.08414319 642.90350579 122.43541567 658.52545166 113.53570557 C659.91822676 112.74144385 661.3082812 111.94238952 662.69537354 111.13824463 C721.24497401 77.19946484 787.49096804 57.18355778 852.63775635 40.33111572 C853.47095398 40.11433167 854.30415161 39.89754761 855.16259766 39.67419434 C916.59032671 23.69707601 979.6815077 13.0948468 1042.63775635 5.33111572 C1043.98912689 5.16319519 1043.98912689 5.16319519 1045.36779785 4.99188232 C1062.33109248 2.88787881 1062.33109248 2.88787881 1070.47979736 2.07501221 C1072.32151757 1.89089594 1074.1632331 1.70673286 1076.00494385 1.52252197 C1076.9087529 1.43282639 1077.81256195 1.3431308 1078.74375916 1.25071716 C1083.75524267 0.72611819 1088.65108531 -0.00093443 1093.58842468 -1.00392151 C1126.13308043 -7.53010893 1155.1716229 5.3127056 1185.33084965 16.26261044 C1194.72296352 19.67101513 1204.15959956 22.91653846 1213.64556885 26.05377197 C1214.32620014 26.27897207 1215.00683144 26.50417217 1215.70808792 26.73619652 C1219.08523257 27.85271526 1222.46329849 28.96641224 1225.84179688 30.0788269 C1229.80992673 31.38667253 1233.77349831 32.70793699 1237.73590088 34.03302002 C1238.37700994 34.24739621 1239.01811901 34.4617724 1239.67865562 34.68264484 C1240.95671927 35.1100363 1242.23477958 35.53743776 1243.51283646 35.96484947 C1257.19840727 40.53908227 1270.91066435 45.02772199 1284.63833618 49.47372437 C1299.67540393 54.34471955 1314.67287535 59.32930364 1329.66293335 64.34292603 C1346.98449841 70.13457575 1364.33790905 75.82307469 1381.71325684 81.45117188 C1384.89003951 82.48158467 1388.06508857 83.51728669 1391.24017334 84.55291748 C1393.76530616 85.37251535 1396.29375507 86.18137506 1398.82232666 86.99029541 C1400.48226097 87.52806173 1402.14209542 88.0661364 1403.80181885 88.60455322 C1404.57649506 88.84944489 1405.35117126 89.09433655 1406.14932251 89.34664917 C1407.99838286 89.95124233 1409.82149917 90.63414592 1411.63775635 91.33111572 C1411.96775635 91.99111572 1412.29775635 92.65111572 1412.63775635 93.33111572 C1411.64204117 93.34951004 1410.64632599 93.36790436 1409.62043762 93.38685608 C1346.8867112 94.55306117 1284.22760392 95.99820329 1221.63775635 100.68267822 C1220.95040405 100.7336113 1220.26305176 100.78454437 1219.55487061 100.83702087 C1214.56839346 101.22187624 1209.60486114 101.75433296 1204.63775635 102.33111572 C1205.56513107 102.63606461 1206.4925058 102.94101349 1207.44798279 103.25520325 C1219.24088133 107.1332336 1231.03322186 111.01295886 1242.82525635 114.89361572 C1243.76700336 115.20352322 1244.70875038 115.51343071 1245.67903519 115.83272934 C1268.52660003 123.35164317 1291.37056418 130.87959471 1314.17938232 138.51541138 C1328.174549 143.19941934 1342.20323631 147.77429353 1356.24383545 152.32009888 C1375.11782008 158.43603698 1393.88929922 164.84182986 1412.63775635 171.33111572 C1412.63775635 171.66111572 1412.63775635 171.99111572 1412.63775635 172.33111572 C1410.72482788 172.36869995 1410.72482788 172.36869995 1408.77325439 172.40704346 C1403.9964769 172.50192861 1399.2198177 172.60194399 1394.44317627 172.70343018 C1392.38428535 172.74647488 1390.32536568 172.78816822 1388.26641846 172.82843018 C1385.28984956 172.88687917 1382.31342139 172.95034958 1379.3369751 173.01470947 C1377.97846687 173.03977821 1377.97846687 173.03977821 1376.59251404 173.06535339 C1370.24074711 173.20930289 1363.95762067 173.68476002 1357.63775635 174.33111572 C1358.17977692 174.52553253 1358.72179749 174.71994934 1359.28024292 174.92025757 C1383.22630639 183.51096512 1407.1661831 192.11471378 1431.02764893 200.93804932 C1444.3226534 205.85352686 1457.63488213 210.72111124 1470.95025635 215.58111572 C1487.90947866 221.77266019 1504.86523072 227.97353268 1521.81314087 234.19598389 C1523.97306128 234.988963 1526.13307386 235.78169114 1528.29318237 236.57415771 C1531.28201727 237.67077114 1534.27049171 238.7683608 1537.2588501 239.86627197 C1538.13969269 240.18932816 1539.02053528 240.51238434 1539.92807007 240.8452301 C1543.8536651 242.28879392 1547.76629277 243.74628008 1551.63775635 245.33111572 C1551.63775635 246.32111572 1551.63775635 247.31111572 1551.63775635 248.33111572 C1523.98652038 254.55013162 1496.21315466 260.17296537 1468.4434042 265.83349442 C1456.40410122 268.28788319 1444.36643225 270.7502821 1432.32854462 273.21160126 C1429.38187156 273.81409019 1426.43517984 274.41648775 1423.48847198 275.01880646 C1392.41039399 281.37143851 1361.33993983 287.76081349 1330.27279234 294.16666746 C1328.25857975 294.58197689 1326.24435933 294.99724834 1324.23013687 295.41250992 C1273.81297446 305.80691599 1223.40297685 316.23595055 1172.99407673 326.67034054 C1165.40006376 328.24226247 1157.80603134 329.81409038 1150.2119751 331.38580322 C1149.47493119 331.53834666 1148.73788728 331.69089011 1147.97850871 331.84805608 C1120.32827087 337.57061153 1092.6744713 343.27577501 1065.01872253 348.97163773 C1038.79324468 354.37308218 1012.57135597 359.79167784 986.3526001 365.22564697 C985.62279182 365.37690064 984.89298355 365.52815432 984.14105988 365.68399143 C975.88551304 367.39497336 967.6300049 369.10614201 959.37451172 370.81738281 C958.6220875 370.97334899 957.86966327 371.12931517 957.09443831 371.29000759 C952.54632218 372.2327642 952.54632218 372.2327642 947.99820805 373.17553043 C900.71227562 382.9773164 853.4191654 392.74308223 806.11480713 402.45562744 C805.08207546 402.66770466 804.0493438 402.87978188 802.98531723 403.09828568 C798.0719854 404.10718359 793.15851228 405.11538087 788.24468994 406.12188721 C779.9924891 407.81312105 771.74263676 409.51356565 763.50054932 411.253479 C762.12319864 411.54310354 760.74583406 411.83266196 759.36845398 412.12214661 C756.91592095 412.63888968 754.46422459 413.15962962 752.0136261 413.68547058 C750.43912941 414.01678734 750.43912941 414.01678734 748.83282471 414.35479736 C747.94042587 414.54530167 747.04802704 414.73580597 746.12858582 414.93208313 C743.58819978 415.33905472 741.2059188 415.40315563 738.63775635 415.33111572 C738.36834229 416.2051001 738.09892822 417.07908447 737.8213501 417.97955322 C733.92424045 429.01493301 726.6508828 437.13561371 718.63775635 445.33111572 C717.90685791 446.12388916 717.17595947 446.9166626 716.4229126 447.73345947 C679.2148779 487.15873273 613.30605421 497.69862556 561.57867432 499.30914307 C501.69920593 500.34444642 430.98109448 486.30895578 386.11090088 443.76153564 C384.60575228 442.29815695 383.11814536 440.81950955 381.63775635 439.33111572 C380.26297119 437.95633057 380.26297119 437.95633057 378.8604126 436.55377197 C371.98777052 429.35041629 371.98777052 429.35041629 370.70187378 425.60566711 C368.86190569 420.99267848 367.03641308 417.49612998 362.50595474 415.29571152 C355.53203636 412.90510289 348.23179139 411.74056279 340.99713135 410.42095947 C338.54221037 409.9341164 336.08821129 409.44260486 333.63508606 408.9467926 C328.34708696 407.88793322 323.05456981 406.85982701 317.75534058 405.85882568 C309.99447137 404.39224186 302.24605639 402.86683058 294.49983609 401.32494092 C290.86633168 400.60173061 287.23241989 399.88057762 283.59840393 399.15994263 C282.87090555 399.01567097 282.14340717 398.87139931 281.39386338 398.72275579 C276.16434184 397.68693205 270.93279971 396.66174198 265.70018005 395.64169312 C245.4053814 391.68451633 225.13878324 387.6073964 204.8916626 383.41314697 C204.20813453 383.27160942 203.52460647 383.13007187 202.82036543 382.9842453 C196.6362501 381.70362996 190.45243441 380.42157378 184.26906776 379.13734818 C170.52416267 376.28275101 156.77492079 373.44932594 143.02509689 370.61853027 C138.97603535 369.78489926 134.92708225 368.95074237 130.87814331 368.11651611 C114.03751291 364.64696164 97.19553199 361.18401079 80.3526001 357.72564697 C78.16861897 357.27717483 75.98463866 356.82869869 73.80065918 356.38021851 C72.72590836 356.15952005 71.65115753 355.9388216 70.5438385 355.71143532 C65.15846733 354.60554637 59.77310562 353.4996113 54.38775635 352.39361572 C53.32181999 352.17471176 52.25588364 351.9558078 51.15764618 351.73027039 C23.80551373 346.11273485 -3.54158842 340.47134501 -30.8817749 334.79595947 C-31.55866033 334.65545103 -32.23554576 334.51494259 -32.93294287 334.37017632 C-44.14020511 332.04370174 -55.34726451 329.71625038 -66.55433655 327.38885975 C-113.56232434 317.6267742 -160.58207033 307.92324955 -207.61224365 298.26861572 C-208.36721587 298.11362909 -209.12218808 297.95864245 -209.90003824 297.79895926 C-215.21759039 296.70733853 -220.53515459 295.61577653 -225.85272217 294.52423096 C-231.15697248 293.43541531 -236.46122095 292.3465907 -241.76546597 291.25774932 C-244.0317762 290.79253407 -246.29809074 290.32733981 -248.56440544 289.86214638 C-282.62787243 282.86994465 -316.6861725 275.85271661 -350.7434597 268.83048487 C-352.84500867 268.39716938 -354.94655957 267.96386325 -357.04811096 267.53055954 C-360.44336444 266.83051456 -363.8386143 266.130452 -367.2338624 265.43038094 C-369.20610154 265.02372553 -371.1783433 264.61708278 -373.15058517 264.21044064 C-379.34709966 262.93278266 -385.54355479 261.65483841 -391.73986816 260.37620544 C-401.96811297 258.26583789 -412.19684079 256.15802779 -422.4286499 254.06500244 C-424.06256676 253.73034922 -425.69647814 253.39566923 -427.3303833 253.06095886 C-430.217427 252.46955245 -433.10491908 251.88041458 -435.99273682 251.2928009 C-437.82209778 250.91815956 -437.82209778 250.91815956 -439.68841553 250.53594971 C-441.24296448 250.21907448 -441.24296448 250.21907448 -442.82891846 249.89579773 C-445.36224365 249.33111572 -445.36224365 249.33111572 -448.36224365 248.33111572 C-448.36224365 247.34111572 -448.36224365 246.35111572 -448.36224365 245.33111572 C-421.60394406 235.48419593 -394.83463378 225.66794137 -368.04974365 215.89361572 C-367.05670731 215.53123117 -367.05670731 215.53123117 -366.04360962 215.16152573 C-360.03815788 212.97001004 -354.03263376 210.77869275 -348.02703857 208.58757019 C-334.78333599 203.7555645 -321.54119904 198.91927617 -308.29974365 194.08111572 C-307.22884491 193.68984497 -306.15794617 193.29857422 -305.05459595 192.89544678 C-288.15261068 186.71968711 -271.2542516 180.53411763 -254.36224365 174.33111572 C-268.68140316 173.21414453 -283.00656864 173.00872634 -297.36224365 172.76861572 C-299.79454112 172.72532083 -302.22683288 172.68170348 -304.65911865 172.63775635 C-310.56009961 172.53182801 -316.46113849 172.4298695 -322.36224365 172.33111572 C-319.70684609 169.67571816 -317.22790087 169.12409926 -313.65740967 167.93951416 C-312.96452032 167.70782846 -312.27163097 167.47614277 -311.55774498 167.23743629 C-309.24575647 166.46601736 -306.93101115 165.70324174 -304.6161499 164.94049072 C-302.98745107 164.39912356 -301.35891907 163.85725425 -299.73054504 163.31491089 C-295.36785714 161.86363719 -291.00269178 160.41995559 -286.63697052 158.97783661 C-283.02080731 157.78225481 -279.40613754 156.58219465 -275.79148483 155.38205528 C-255.24459984 148.5603722 -234.68322589 141.78386516 -214.08465576 135.11968994 C-200.00943607 130.56331957 -185.97710195 125.88175618 -171.94677734 121.18920898 C-152.79012908 114.78395148 -133.59067436 108.51728246 -114.36224365 102.33111572 C-183.54474433 95.97553546 -252.93404475 94.45980571 -322.36224365 93.33111572 C-321.36224365 91.33111572 -321.36224365 91.33111572 -319.48129272 90.50146484 C-318.65390594 90.22836487 -317.82651917 89.95526489 -316.97406006 89.67388916 C-316.03180573 89.35885437 -315.08955139 89.04381958 -314.1187439 88.71923828 C-313.07761444 88.37975159 -312.03648499 88.04026489 -310.96380615 87.69049072 C-309.86861664 87.32699524 -308.77342712 86.96349976 -307.64505005 86.58898926 C-304.0947236 85.412684 -300.54104742 84.24686775 -296.98724365 83.08111572 C-294.75395155 82.34219452 -292.52087649 81.602617 -290.2880249 80.86236572 C-276.80176989 76.39974089 -263.29354438 72.00488163 -249.78430939 67.61244392 C-225.9863099 59.87451259 -202.21636683 52.05291489 -178.45415878 44.20582962 C-175.18124058 43.12512371 -171.90818918 42.04482208 -168.63510132 40.96463013 C-145.282337 33.25740882 -121.93112309 25.54590305 -98.6083374 17.74835205 C-93.99885822 16.20776561 -89.38576004 14.67901003 -84.76849365 13.16192627 C-75.91029658 10.24487965 -67.10893866 7.30049933 -58.4364624 3.86627197 C-38.14958698 -4.02934824 -21.106955 -2.75127354 0 0 Z " fill="#FEA73A" transform="translate(448.36224365234375,895.6688842773438)"/>
<path d="M0 0 C4.50394948 0.56537765 9.01799111 1.03265269 13.5322876 1.50689697 C23.71507315 2.58863119 33.88116999 3.79026324 44.04693604 5.02050781 C46.50100802 5.31472126 48.95579882 5.60140246 51.41119385 5.88433838 C144.05362009 16.57008766 237.9711471 35.31947953 507.63775635 173.33111572 C508.53863728 174.39635585 509.43969523 175.46144627 510.34088135 176.52642822 C526.74997916 196.18630931 540.2289552 219.80108116 544.63775635 245.33111572 C544.96775635 245.33111572 545.29775635 245.33111572 545.63775635 245.33111572 C545.85689697 244.35013916 546.0760376 243.3691626 546.30181885 242.35845947 C555.26743614 203.61401174 579.77893178 170.77614538 610.63775635 146.33111572 C611.77092609 145.39823181 612.90235426 144.46322953 614.0322876 143.52642822 C627.92233119 132.08414319 642.90350579 122.43541567 658.52545166 113.53570557 C659.91822676 112.74144385 661.3082812 111.94238952 662.69537354 111.13824463 C721.24497401 77.19946484 787.49096804 57.18355778 852.63775635 40.33111572 C853.47095398 40.11433167 854.30415161 39.89754761 855.16259766 39.67419434 C916.59032671 23.69707601 979.6815077 13.0948468 1042.63775635 5.33111572 C1043.98912689 5.16319519 1043.98912689 5.16319519 1045.36779785 4.99188232 C1062.33109248 2.88787881 1062.33109248 2.88787881 1070.47979736 2.07501221 C1072.32151757 1.89089594 1074.1632331 1.70673286 1076.00494385 1.52252197 C1076.9087529 1.43282639 1077.81256195 1.3431308 1078.74375916 1.25071716 C1083.75524267 0.72611819 1088.65108531 -0.00093443 1093.58842468 -1.00392151 C1126.13308043 -7.53010893 1155.1716229 5.3127056 1185.33084965 16.26261044 C1194.72296352 19.67101513 1204.15959956 22.91653846 1213.64556885 26.05377197 C1214.32620014 26.27897207 1215.00683144 26.50417217 1215.70808792 26.73619652 C1219.08523257 27.85271526 1222.46329849 28.96641224 1225.84179688 30.0788269 C1229.80992673 31.38667253 1233.77349831 32.70793699 1237.73590088 34.03302002 C1238.37700994 34.24739621 1239.01811901 34.4617724 1239.67865562 34.68264484 C1240.95671927 35.1100363 1242.23477958 35.53743776 1243.51283646 35.96484947 C1257.19840727 40.53908227 1270.91066435 45.02772199 1284.63833618 49.47372437 C1299.67540393 54.34471955 1314.67287535 59.32930364 1329.66293335 64.34292603 C1346.98449841 70.13457575 1364.33790905 75.82307469 1381.71325684 81.45117188 C1384.89003951 82.48158467 1388.06508857 83.51728669 1391.24017334 84.55291748 C1393.76530616 85.37251535 1396.29375507 86.18137506 1398.82232666 86.99029541 C1400.48226097 87.52806173 1402.14209542 88.0661364 1403.80181885 88.60455322 C1404.57649506 88.84944489 1405.35117126 89.09433655 1406.14932251 89.34664917 C1407.99838286 89.95124233 1409.82149917 90.63414592 1411.63775635 91.33111572 C1411.96775635 91.99111572 1412.29775635 92.65111572 1412.63775635 93.33111572 C1411.64204117 93.34951004 1410.64632599 93.36790436 1409.62043762 93.38685608 C1348.84547524 94.51664821 1288.08796878 95.7047803 1227.45611572 100.32891846 C1225.90729367 100.4469181 1224.35846567 100.56483973 1222.80963135 100.68267822 C1222.0607666 100.73986526 1221.31190186 100.79705231 1220.54034424 100.85597229 C1214.7898193 101.28076918 1209.03905698 101.54822878 1203.27838135 101.79205322 C1192.686708 102.25834492 1182.17837069 103.21114783 1171.63775635 104.33111572 C1170.66192596 104.43316315 1169.68609558 104.53521057 1168.68069458 104.64035034 C1149.09384511 106.70108848 1129.55999986 109.17553096 1110.03063965 111.71563721 C1107.70975869 112.0173803 1105.38872879 112.31795844 1103.06768799 112.61846924 C1099.37848117 113.09692941 1095.68999126 113.58059826 1092.00201225 114.06842995 C1090.63699879 114.24858768 1089.27182557 114.42753994 1087.90648079 114.6051693 C1081.39241208 115.45457843 1074.98141727 116.38377395 1068.58836365 117.90171814 C1065.53883345 118.57302748 1062.46691212 118.88042637 1059.36431885 119.21002197 C1049.47726257 120.35249895 1039.7666943 122.31979034 1030.01275635 124.26861572 C1028.22899657 124.62000665 1026.44514263 124.97091994 1024.66119385 125.3213501 C1016.10005703 127.00883669 1007.55371541 128.75069695 999.02593994 130.60040283 C995.31949533 131.39975351 991.60809725 132.17395853 987.89556885 132.94439697 C967.68866166 137.15111131 947.54645018 141.52208363 927.77862549 147.51397705 C923.51480113 148.80270656 919.23565208 149.96213307 914.91680908 151.05181885 C904.59633909 153.66018286 894.55962991 156.9240847 884.48931885 160.36627197 C880.40130609 161.75803167 876.29607892 163.06484508 872.1651001 164.32330322 C801.37216715 185.91892451 730.88043708 219.31268966 672.37896729 264.97515869 C670.60268453 266.35842768 668.81292147 267.72266025 667.02056885 269.08502197 C659.92673773 274.51742599 653.25960301 280.2681584 646.77056885 286.40924072 C644.51352343 288.5416417 642.19791705 290.58662056 639.8447876 292.61236572 C635.10201247 296.74113093 630.6431422 301.13377585 626.20025635 305.58111572 C625.35986816 306.42230957 624.51947998 307.26350342 623.65362549 308.13018799 C617.89833581 313.94262159 612.65859133 319.87432194 607.63775635 326.33111572 C606.03674561 328.2088112 604.43238762 330.08365617 602.82525635 331.95611572 C579.14951957 360.39631965 560.45089762 394.61771635 550.63775635 430.33111572 C550.3438501 431.39330322 550.04994385 432.45549072 549.74713135 433.54986572 C547.94339396 440.41114128 546.69459534 447.31867818 545.63775635 454.33111572 C543.44555378 451.04281186 543.21338793 449.29884407 542.73931885 445.43267822 C541.76804372 438.62243653 540.08319699 432.25677233 538.01275635 425.70611572 C537.6572168 424.57439941 537.30167725 423.44268311 536.93536377 422.27667236 C526.72467708 390.43672706 510.16200822 361.59569379 489.63775635 335.33111572 C489.12487061 334.67256592 488.61198486 334.01401611 488.08355713 333.33551025 C474.26552384 315.69372702 458.76172048 298.82522149 441.63775635 284.33111572 C440.58863101 283.41944539 439.54054793 282.50657495 438.4932251 281.59283447 C430.75999855 274.86673085 422.86246834 268.44813328 414.63775635 262.33111572 C413.68836182 261.61882812 413.68836182 261.61882812 412.7197876 260.89215088 C357.06784629 219.27429438 293.75217397 190.82698061 228.60406494 167.73931885 C225.24235976 166.54771701 221.88635261 165.34095505 218.5322876 164.12799072 C210.30587953 161.17049294 202.07304625 158.50181845 193.62677002 156.2432251 C187.4746739 154.5956896 181.40485766 152.72690538 175.32525635 150.83111572 C167.03293799 148.26363989 158.72076732 146.01906767 150.25372314 144.10455322 C145.32119685 142.98886881 140.43781287 141.75357759 135.5557251 140.43267822 C127.39659359 138.23027036 119.1884035 136.27641478 110.95025635 134.39361572 C110.19884369 134.22125397 109.44743103 134.04889221 108.67324829 133.87130737 C95.02171442 130.7519487 81.32305835 128.15353458 67.51373291 125.82183838 C63.61004519 125.15575923 59.71609001 124.44322078 55.82525635 123.70611572 C54.69426514 123.49253418 53.56327393 123.27895264 52.39801025 123.05889893 C50.04426256 122.60333979 47.69323008 122.13324167 45.34674072 121.6416626 C34.93838115 119.46509966 24.47992876 117.91747708 13.95025635 116.45611572 C12.08376654 116.19472623 10.21731208 115.93308424 8.35089111 115.67120361 C5.50559649 115.27227656 2.66022547 114.87394962 -0.18544006 114.47767639 C-5.92255648 113.67805014 -11.65527469 112.85313349 -17.38568115 112.00689697 C-54.98943014 106.48716902 -92.77006914 103.22104774 -130.67474365 100.64361572 C-131.43488644 100.59184174 -132.19502922 100.54006775 -132.97820663 100.48672485 C-144.10389964 99.73070407 -155.23174347 99.01268766 -166.36224365 98.33111572 C-167.48006855 98.26259966 -167.48006855 98.26259966 -168.62047577 98.19269943 C-190.15813237 96.87863833 -211.68543974 95.90959501 -233.25502014 95.32616425 C-235.40827955 95.26735848 -237.56147416 95.20655691 -239.71466064 95.1451416 C-267.26035697 94.35978595 -294.80895153 93.77904791 -322.36224365 93.33111572 C-321.36224365 91.33111572 -321.36224365 91.33111572 -319.48129272 90.50146484 C-318.24021255 90.09181488 -318.24021255 90.09181488 -316.97406006 89.67388916 C-316.03180573 89.35885437 -315.08955139 89.04381958 -314.1187439 88.71923828 C-313.07761444 88.37975159 -312.03648499 88.04026489 -310.96380615 87.69049072 C-309.86861664 87.32699524 -308.77342712 86.96349976 -307.64505005 86.58898926 C-304.0947236 85.412684 -300.54104742 84.24686775 -296.98724365 83.08111572 C-294.75395155 82.34219452 -292.52087649 81.602617 -290.2880249 80.86236572 C-276.80176989 76.39974089 -263.29354438 72.00488163 -249.78430939 67.61244392 C-225.9863099 59.87451259 -202.21636683 52.05291489 -178.45415878 44.20582962 C-175.18124058 43.12512371 -171.90818918 42.04482208 -168.63510132 40.96463013 C-145.282337 33.25740882 -121.93112309 25.54590305 -98.6083374 17.74835205 C-93.99885822 16.20776561 -89.38576004 14.67901003 -84.76849365 13.16192627 C-75.91029658 10.24487965 -67.10893866 7.30049933 -58.4364624 3.86627197 C-38.14958698 -4.02934824 -21.106955 -2.75127354 0 0 Z " fill="#FFE8A5" transform="translate(448.36224365234375,895.6688842773438)"/>
<path d="M0 0 C2.94316925 0.33584685 5.88887266 0.61416857 8.83850098 0.88742065 C15.92544946 1.55497132 23.00349558 2.29738761 30.08166504 3.05172729 C31.97142059 3.25147659 31.97142059 3.25147659 33.89935303 3.45526123 C52.84765742 5.46542108 71.70293284 7.79690959 90.5357666 10.68405151 C95.0225249 11.36564813 99.51635067 11.99359365 104.01135254 12.61813354 C105.59615353 12.83938619 107.18095173 13.06065883 108.76574707 13.2819519 C111.03176043 13.59814599 113.29786557 13.91348845 115.56451416 14.22509766 C124.11494423 15.4034531 132.56964338 16.82801541 141.02648926 18.57418823 C146.77122427 19.72949329 152.55129968 20.65704416 158.33166504 21.61422729 C172.87138808 24.08070362 187.25637496 27.07444088 201.64416504 30.30172729 C203.11354029 30.62947965 204.58294243 30.95711149 206.05236816 31.28463745 C209.94340046 32.15303463 213.83294011 33.02787216 217.72149658 33.9072876 C219.22489465 34.24716459 220.72850817 34.58609035 222.23236084 34.9239502 C231.80854043 37.08011246 241.2213924 39.54264093 250.64416504 42.30172729 C253.07681517 42.96867531 255.51520287 43.60473952 257.95666504 44.23922729 C264.64533686 46.01138055 271.28667446 47.91494986 277.91687012 49.89401245 C281.00167446 50.81400045 284.08832572 51.7273231 287.17663574 52.63546753 C299.09324212 56.15531342 310.89109294 59.95840691 322.64416504 63.98922729 C323.530466 64.29264038 324.41676697 64.59605347 325.32992554 64.90866089 C391.41546343 87.58354168 455.93675289 117.70288999 511.64416504 160.30172729 C512.22279297 160.74290894 512.8014209 161.18409058 513.39758301 161.63864136 C530.46626015 174.709123 546.4001924 189.02645389 561.64416504 204.17672729 C562.39935425 204.92490723 562.39935425 204.92490723 563.1697998 205.6882019 C597.13279499 239.79741962 623.24399282 283.11173973 636.64416504 329.30172729 C637.12369629 330.84473511 637.12369629 330.84473511 637.61291504 332.41891479 C639.35818239 338.25263253 639.94364585 343.2122842 639.64416504 349.30172729 C639.31416504 349.30172729 638.98416504 349.30172729 638.64416504 349.30172729 C638.42373535 348.22858276 638.42373535 348.22858276 638.19885254 347.13375854 C636.35132307 338.92605581 633.37650364 331.8168415 629.64416504 324.30172729 C629.00260322 322.97144953 628.36201417 321.64070227 627.72229004 320.30953979 C613.60802031 291.19044479 591.46273071 264.17050785 565.99963379 244.16110229 C563.90326205 242.50625495 561.92985248 240.78692518 559.95666504 238.98922729 C547.542443 228.07975944 533.61587096 219.05697004 519.64416504 210.30172729 C518.85590332 209.80704956 518.0676416 209.31237183 517.25549316 208.80270386 C476.57124809 183.44703572 432.87844016 164.89751553 387.64416504 149.30172729 C386.99044922 149.0761615 386.3367334 148.8505957 385.66320801 148.61819458 C362.45175716 140.62262572 339.09350343 133.59020875 315.35949707 127.29074097 C311.92019658 126.37520632 308.48522546 125.4448675 305.05041504 124.51266479 C257.37926937 111.74088028 208.5489663 102.83136543 159.72814941 95.76754761 C157.36074457 95.40996303 154.99996145 95.03310393 152.63830566 94.64059448 C139.18730552 92.42099935 125.68975586 90.82372297 112.14416504 89.30172729 C109.79876 89.03585589 107.4533826 88.76974061 105.10803223 88.50338745 C100.57538128 87.98914925 96.04247244 87.47726898 91.50939941 86.96676636 C86.98463193 86.45587083 82.46220601 85.92943624 77.94104004 85.38766479 C58.52743062 83.08445793 39.03636661 81.58075264 19.55162048 80.02235413 C14.20301491 79.59364839 8.856174 79.15147804 3.51119995 78.67965698 C-22.11519427 76.42301758 -47.78680021 75.34785369 -73.48547363 74.30343628 C-74.22125043 74.27337588 -74.95702723 74.24331549 -75.71510029 74.21234417 C-79.1873517 74.07059904 -82.65964025 73.93103821 -86.13215637 73.79585266 C-92.1505273 73.55418736 -98.14902402 73.25271742 -104.15490723 72.79464722 C-115.67207059 72.00056611 -127.21854726 71.95048681 -138.75817871 71.76657104 C-141.29265384 71.72348334 -143.82712339 71.68006666 -146.36158752 71.63633728 C-152.31092712 71.53447226 -158.26031505 71.43588214 -164.20973641 71.33894306 C-170.99356077 71.22822071 -177.77731055 71.11321678 -184.56105793 70.99788845 C-198.49257347 70.76113728 -212.42417235 70.52964839 -226.35583496 70.30172729 C-223.7004374 67.64632973 -221.22149218 67.09471083 -217.65100098 65.91012573 C-216.61166696 65.56259719 -216.61166696 65.56259719 -215.55133629 65.20804787 C-213.23934778 64.43662893 -210.92460246 63.67385331 -208.60974121 62.91110229 C-206.98104238 62.36973513 -205.35251038 61.82786582 -203.72413635 61.28552246 C-199.36144845 59.83424876 -194.99628309 58.39056717 -190.63056183 56.94844818 C-187.01439861 55.75286638 -183.39972885 54.55280622 -179.78507614 53.35266685 C-159.23599084 46.53025326 -138.67234424 39.7532596 -118.07165527 33.08810425 C-106.11095189 29.21609977 -94.18053286 25.25749562 -82.25769043 21.27050781 C-79.20823778 20.25254755 -76.15731532 19.23912853 -73.10583496 18.2272644 C-64.32829252 15.31418946 -55.55846652 12.38860226 -46.83018494 9.33052063 C-43.23382548 8.07474256 -39.62939126 6.84330549 -36.02340698 5.61547852 C-34.36508729 5.04396878 -32.7105411 4.4613535 -31.06057739 3.8661499 C-20.24437175 -0.0312581 -11.42360824 -1.32413782 0 0 Z " fill="#FED24F" transform="translate(352.3558349609375,997.6982727050781)"/>
<path d="M0 0 C0.79216415 0.26036545 1.58432831 0.5207309 2.40049744 0.78898621 C5.01105828 1.65053501 7.61483376 2.53093411 10.21899414 3.41162109 C12.07810963 4.02943423 13.93762086 4.64605759 15.79750061 5.26156616 C20.71233477 6.89163745 25.62165333 8.53773642 30.52996826 10.18731689 C35.36129349 11.8080699 40.19753792 13.41398424 45.03344727 15.02099609 C53.67790634 17.8961116 62.31821341 20.78346915 70.95657539 23.6768465 C81.33073131 27.15156023 91.70760151 30.61811391 102.08618164 34.07958984 C102.97095877 34.37470018 103.85573589 34.66981052 104.76732445 34.9738636 C116.8102259 38.9893269 128.86424327 42.96651768 140.94760132 46.85882568 C161.57396198 53.508342 182.08746055 60.47172507 202.56665039 67.56005859 C202.56665039 67.89005859 202.56665039 68.22005859 202.56665039 68.56005859 C201.90026771 68.57183262 201.23388502 68.58360664 200.54730892 68.59573746 C94.9754642 70.03833359 94.9754642 70.03833359 -10.43334961 75.56005859 C-12.40631894 75.70638522 -14.37930029 75.85254995 -16.35229492 75.99853516 C-24.20416908 76.5854316 -32.05138384 77.2110772 -39.89428711 77.90771484 C-48.57500677 78.67707629 -57.26621323 79.27579353 -65.96337891 79.82617188 C-72.26643899 80.24840553 -78.50339619 80.91121641 -84.7677002 81.72634888 C-90.70589725 82.49073897 -96.65368124 83.12940096 -102.60913086 83.74365234 C-104.08658531 83.89695763 -104.08658531 83.89695763 -105.59388733 84.05335999 C-109.66170135 84.47471598 -113.72966337 84.89442012 -117.79833984 85.30737305 C-129.67213268 86.5158312 -141.44722621 87.94126326 -153.22363281 89.8840332 C-158.91747452 90.81735654 -164.63736401 91.48466586 -170.37084961 92.12255859 C-177.26785962 92.89576599 -184.10706362 93.79176253 -190.94726562 94.96850586 C-195.20852306 95.69159759 -199.4767106 96.36582843 -203.74584961 97.04052734 C-235.94569713 102.1574594 -267.84308792 107.99137723 -299.54663086 115.63330078 C-303.74349028 116.63400922 -307.94666427 117.60401828 -312.15209961 118.56787109 C-325.77576151 121.69905918 -339.31435092 124.88434687 -352.65600586 129.08740234 C-357.03332544 130.46234724 -361.44729373 131.66488679 -365.87719727 132.85766602 C-423.61453266 148.48890341 -480.97895375 170.86944429 -532.43334961 201.56005859 C-533.33762695 202.09872559 -534.2419043 202.63739258 -535.17358398 203.19238281 C-552.43069656 213.53743837 -568.8317933 224.85514846 -584.43334961 237.56005859 C-584.95864258 237.9809375 -585.48393555 238.40181641 -586.02514648 238.83544922 C-603.08424578 252.56285792 -619.73390173 268.68498668 -632.43334961 286.56005859 C-633.05467773 287.39794922 -633.67600586 288.23583984 -634.31616211 289.09912109 C-647.21867314 306.86177081 -657.01044049 326.2771841 -662.43334961 347.56005859 C-662.76334961 347.56005859 -663.09334961 347.56005859 -663.43334961 347.56005859 C-663.71258935 340.66283705 -662.82841959 334.92817094 -660.93334961 328.31005859 C-660.66417725 327.35478271 -660.39500488 326.39950684 -660.11767578 325.4152832 C-648.3430148 284.77716146 -626.38871639 247.0983494 -597.69897461 216.03662109 C-595.85386285 214.01972306 -594.06920831 211.97308024 -592.28881836 209.89990234 C-587.90892532 204.88159216 -583.21463164 200.19510079 -578.49584961 195.49755859 C-577.64055664 194.63839844 -576.78526367 193.77923828 -575.90405273 192.89404297 C-570.90891564 187.90652622 -565.80062921 183.14247649 -560.43334961 178.56005859 C-559.33842898 177.59915127 -558.24462902 176.63696507 -557.15209961 175.67333984 C-548.57082733 168.17711678 -539.65685171 161.24655506 -530.43334961 154.56005859 C-529.74337891 154.05974121 -529.0534082 153.55942383 -528.3425293 153.04394531 C-507.11389732 137.72091188 -484.83396623 124.35722954 -461.93334961 111.68505859 C-461.20656006 111.28158203 -460.47977051 110.87810547 -459.73095703 110.46240234 C-446.42312067 103.17382996 -432.71214659 96.69838755 -418.87084961 90.49755859 C-418.06663574 90.13688293 -417.26242187 89.77620728 -416.43383789 89.40460205 C-391.43006507 78.23224835 -365.85640663 68.01578819 -339.58691406 60.21337891 C-333.80755783 58.46011314 -328.13810692 56.46093252 -322.49584961 54.31005859 C-313.50131316 51.07552227 -304.26707575 48.75369242 -295.03100586 46.31787109 C-289.26430985 44.79440441 -283.53401156 43.16745154 -277.80834961 41.49755859 C-242.97303938 31.44610631 -207.3798392 24.63666653 -171.77182007 17.99758911 C-169.46412263 17.56581626 -167.1572353 17.12996143 -164.85058594 16.69262695 C-164.12802612 16.55596619 -163.40546631 16.41930542 -162.66101074 16.27850342 C-160.72277035 15.91169724 -158.78471734 15.54390128 -156.84667969 15.17602539 C-152.46598978 14.38548962 -148.0736616 13.75283006 -143.66381836 13.14990234 C-139.27148492 12.54703305 -134.88893872 11.88186836 -130.50500488 11.22108459 C-104.6919157 7.34711415 -78.84546912 4.03763936 -52.89355469 1.26757812 C-49.27604053 0.88132934 -45.65944549 0.4870731 -42.04300976 0.0908699 C-39.19934576 -0.2196619 -36.35521071 -0.52569243 -33.51091957 -0.83042145 C-31.53825031 -1.04265338 -29.5660145 -1.25890214 -27.59379578 -1.47528076 C-25.78803825 -1.66613251 -25.78803825 -1.66613251 -23.94580078 -1.86083984 C-22.90155441 -1.97312927 -21.85730804 -2.0854187 -20.78141785 -2.20111084 C-13.25048361 -2.7383213 -7.16999334 -2.4658905 0 0 Z " fill="#FED24F" transform="translate(1658.433349609375,999.43994140625)"/>
<path d="M0 0 C2.25700492 2.871645 4.06354194 5.78876639 5.78515625 9.0078125 C7.46351313 12.14191606 9.14393004 15.27180966 10.8684082 18.38085938 C13.51783198 23.1833194 16.05247769 27.84487777 17.8828125 33.0234375 C22.59433299 45.34162023 31.12318756 49.46667663 42.625 54.625 C46.23344786 56.20442875 49.86037624 57.73691914 53.50209045 59.23797607 C61.20053365 62.4297751 68.59756063 66.18055647 76 70 C72.65473165 72.75492688 69.01516671 74.53784011 65.1015625 76.328125 C64.43015228 76.64021912 63.75874207 76.95231323 63.06698608 77.27386475 C60.92167308 78.27032957 58.77355711 79.26055199 56.625 80.25 C55.2198315 80.8992624 53.81488154 81.54899799 52.41015625 82.19921875 C51.71876556 82.51922348 51.02737488 82.83922821 50.31503296 83.16893005 C48.22789121 84.1400068 46.14631496 85.12234423 44.06494141 86.10571289 C41.42178991 87.35218433 38.76284113 88.53460137 36.07177734 89.67358398 C27.59192405 93.37899379 23.37255495 97.20873494 19.375 105.5625 C18.85848877 106.55451416 18.34197754 107.54652832 17.80981445 108.56860352 C16.73082324 110.64235365 15.6671949 112.72416563 14.61865234 114.81347656 C11.93738682 120.09188948 9.04746627 125.25450417 6.1875 130.4375 C4.45342369 133.62234704 2.72574941 136.81063438 1 140 C0.34 140 -0.32 140 -1 140 C-1.40202637 139.24605957 -1.80405273 138.49211914 -2.21826172 137.71533203 C-2.78303223 136.65685059 -3.34780273 135.59836914 -3.9296875 134.5078125 C-4.23447021 133.9349501 -4.53925293 133.36208771 -4.85327148 132.77186584 C-6.55073318 129.58593626 -8.26353429 126.40976289 -10.00439453 123.24731445 C-16.04255538 112.2313996 -16.04255538 112.2313996 -18.0625 106.66015625 C-22.31613443 95.64800816 -29.39950317 91.50989652 -39.82894897 86.84442139 C-44.885368 84.64979915 -49.9905426 82.58515683 -55.1171875 80.56103516 C-60.03520987 78.60880997 -64.80453842 76.3741938 -69.5625 74.0625 C-70.85504998 73.44833663 -72.14795938 72.83492847 -73.44140625 72.22265625 C-74.70791016 71.61744141 -74.70791016 71.61744141 -76 71 C-72.91677872 67.66913249 -69.28557233 66.04280468 -65.21875 64.1640625 C-64.45002563 63.80283295 -63.68130127 63.44160339 -62.88928223 63.06942749 C-60.4289923 61.91518244 -57.96457637 60.77005934 -55.5 59.625 C-53.87212347 58.86256042 -52.24451634 58.09954536 -50.6171875 57.3359375 C-49.42808022 56.77975739 -49.42808022 56.77975739 -48.21495056 56.21234131 C-46.63893988 55.47406581 -45.06435035 54.73274861 -43.4912262 53.98834229 C-40.22447561 52.45187537 -37.00047842 51.00017912 -33.61694336 49.73339844 C-25.71594559 46.74742734 -23.09883556 42.50492943 -19.5625 35 C-18.47782825 32.85156624 -17.39052909 30.70445722 -16.30078125 28.55859375 C-15.76018066 27.47175293 -15.21958008 26.38491211 -14.66259766 25.26513672 C-12.0314837 20.09795345 -9.1500084 15.0822337 -6.25 10.0625 C-5.73638916 9.16337891 -5.22277832 8.26425781 -4.69360352 7.33789062 C-1.13891832 1.13891832 -1.13891832 1.13891832 0 0 Z " fill="#FFD34E" transform="translate(1005,605)"/>
<path d="M0 0 C2.63091092 3.29861379 4.62828598 6.79033884 6.65234375 10.48828125 C6.99374893 11.10970505 7.33515411 11.73112885 7.68690491 12.37138367 C8.77333226 14.35018419 9.85556334 16.33124118 10.9375 18.3125 C12.01672074 20.28256753 13.09681469 22.25215286 14.17738342 24.22148132 C15.16134497 26.01572669 16.14311375 27.81117406 17.12475586 29.60668945 C17.74358643 30.72648193 18.36241699 31.84627441 19 33 C19.30481293 33.6171286 19.60962585 34.2342572 19.92367554 34.87008667 C22.20444866 39.30321775 24.23554385 41.2137143 28.734375 43.28125 C29.85932373 43.81016846 30.98427246 44.33908691 32.14331055 44.8840332 C33.33351807 45.41730225 34.52372559 45.95057129 35.75 46.5 C36.97189454 47.06495673 38.19300341 47.63161572 39.41333008 48.19995117 C42.92928492 49.82911602 46.46234313 51.41846536 50 53 C50.93440918 53.41975098 51.86881836 53.83950195 52.83154297 54.27197266 C57.2019364 56.22788749 61.58725609 58.1416469 66 60 C66 60.99 66 61.98 66 63 C65.30140869 63.32162109 64.60281738 63.64324219 63.88305664 63.97460938 C62.90199951 64.42642578 61.92094238 64.87824219 60.91015625 65.34375 C59.82371826 65.84293945 58.73728027 66.34212891 57.61791992 66.85644531 C55.22941204 67.96057462 52.84548998 69.07467393 50.46606445 70.19824219 C40.18281499 75.03397147 40.18281499 75.03397147 34.9453125 76.734375 C23.66643565 80.5872283 19.63816414 87.16311041 14.41601562 97.69433594 C13.41030211 99.79678068 12.41418034 101.90384352 11.42822266 104.015625 C9.38043626 108.29462345 7.05832322 112.39387118 4.6875 116.5 C3.96143044 117.78079164 3.23607318 119.06198758 2.51171875 120.34375 C2.01285156 121.2203125 1.51398438 122.096875 1 123 C-2.06424213 120.17134185 -4.04581829 117.46301264 -5.98828125 113.78125 C-6.53033203 112.76546875 -7.07238281 111.7496875 -7.63085938 110.703125 C-8.18580078 109.64609375 -8.74074219 108.5890625 -9.3125 107.5 C-10.96785992 104.37386358 -12.62886717 101.25267581 -14.32275391 98.1472168 C-15.43451609 96.06108488 -16.49029862 93.94407756 -17.48583984 91.80004883 C-21.976279 82.79030441 -28.09580587 79.47762673 -37 75.6875 C-38.30647669 75.09961303 -39.61140891 74.508282 -40.91479492 73.91357422 C-43.45399906 72.76086013 -46.00013256 71.62712825 -48.55615234 70.51220703 C-52.84683476 68.62815153 -57.07970165 66.6345049 -61.3125 64.625 C-63.20732029 63.7478084 -65.102635 62.87167373 -67 62 C-63.32372597 58.9213232 -59.21612649 57.04841462 -54.91015625 55.0234375 C-54.12861679 54.65272125 -53.34707733 54.282005 -52.54185486 53.90005493 C-50.89298931 53.11957689 -49.24302505 52.34141633 -47.59204102 51.56542969 C-45.07142884 50.37920201 -42.55609161 49.18228781 -40.04101562 47.984375 C-38.43520362 47.22591051 -36.82909354 46.46807673 -35.22265625 45.7109375 C-34.47355484 45.3536557 -33.72445343 44.9963739 -32.95265198 44.62826538 C-29.31504644 42.92841874 -26.02180987 41.5428331 -22 41 C-21.72833008 40.12311523 -21.45666016 39.24623047 -21.17675781 38.34277344 C-20.06714796 35.19074477 -18.76790486 32.44530944 -17.171875 29.515625 C-16.61886719 28.49726562 -16.06585937 27.47890625 -15.49609375 26.4296875 C-14.63177734 24.85574219 -14.63177734 24.85574219 -13.75 23.25 C-13.18925781 22.21617187 -12.62851563 21.18234375 -12.05078125 20.1171875 C-2.37556267 2.37556267 -2.37556267 2.37556267 0 0 Z " fill="#FFD34E" transform="translate(1144,749)"/>
<path d="M0 0 C2.84908632 2.50969338 4.38167481 5.28638539 6.14453125 8.62890625 C6.73943359 9.74716797 7.33433594 10.86542969 7.94726562 12.01757812 C8.56939338 13.19901717 9.19113637 14.3806589 9.8125 15.5625 C13.67151782 22.86456894 17.54685639 30.09207009 21.94018555 37.08959961 C23 39 23 39 23 41 C23.55361206 41.17337387 24.10722412 41.34674774 24.6776123 41.52537537 C30.06569364 43.25989324 35.16724107 45.30443876 40.28125 47.72265625 C41.39058899 48.24187904 41.39058899 48.24187904 42.52233887 48.77159119 C44.0662067 49.49600718 45.60888448 50.22296457 47.15039062 50.95239258 C49.51825906 52.07112676 51.89163094 53.17753737 54.265625 54.28320312 C55.77117691 54.9914576 57.27639782 55.70041623 58.78125 56.41015625 C59.49156372 56.74040298 60.20187744 57.07064972 60.93371582 57.41090393 C65.88522322 59.77044644 65.88522322 59.77044644 67 62 C65.21384277 62.84763916 65.21384277 62.84763916 63.39160156 63.71240234 C58.97083148 65.81045718 54.55031854 67.90905331 50.12988281 70.0078125 C48.21719248 70.91583775 46.30443259 71.82371648 44.39160156 72.73144531 C41.64109254 74.03672322 38.89083468 75.34252901 36.140625 76.6484375 C34.85916595 77.25635635 34.85916595 77.25635635 33.55181885 77.8765564 C32.75129089 78.25679962 31.95076294 78.63704285 31.12597656 79.02880859 C30.42426331 79.36190033 29.72255005 79.69499207 28.99957275 80.03817749 C28.33971375 80.35557892 27.67985474 80.67298035 27 81 C26.28815552 81.32132904 25.57631104 81.64265808 24.84289551 81.97372437 C22.08343437 83.51041905 21.27092137 85.6161556 19.828125 88.390625 C18.96018311 90.03538818 18.96018311 90.03538818 18.07470703 91.71337891 C17.47255371 92.88046387 16.87040039 94.04754883 16.25 95.25 C15.62619196 96.4387002 15.00102667 97.62668912 14.37451172 98.81396484 C13.14335873 101.14713339 11.91462482 103.48158025 10.68847656 105.81738281 C7.60501395 111.62941557 4.32381086 117.32268332 1 123 C-1.68837873 120.59568201 -3.2065758 118.05456589 -4.890625 114.87890625 C-5.43243408 113.86586426 -5.97424316 112.85282227 -6.5324707 111.80908203 C-7.09925537 110.73770996 -7.66604004 109.66633789 -8.25 108.5625 C-12.32452452 100.93275866 -16.42527342 93.36480538 -20.92578125 85.9765625 C-22 84 -22 84 -22 82 C-22.84836426 81.73429199 -23.69672852 81.46858398 -24.57080078 81.19482422 C-28.12722812 79.95567034 -31.45757458 78.48120012 -34.8671875 76.8828125 C-35.50560577 76.58438446 -36.14402405 76.28595642 -36.80178833 75.97848511 C-38.14543692 75.34966585 -39.48835295 74.71927911 -40.83056641 74.08740234 C-42.86073932 73.13171311 -44.89303038 72.18066046 -46.92578125 71.23046875 C-53.32489413 68.23384837 -59.70206144 65.20534469 -66 62 C-66 61.34 -66 60.68 -66 60 C-65.37246826 59.71390869 -64.74493652 59.42781738 -64.09838867 59.13305664 C-63.2138501 58.72949951 -62.32931152 58.32594238 -61.41796875 57.91015625 C-60.4321582 57.4610791 -59.44634766 57.01200195 -58.43066406 56.54931641 C-56.24764452 55.54851928 -54.06865045 54.53889964 -51.89355469 53.52099609 C-46.84626794 51.16584194 -41.84266089 48.88452621 -36.59765625 47.00390625 C-23.23365157 41.991745 -18.35375567 34.42682512 -12.34082031 21.76416016 C-10.18570347 17.32129182 -7.73982549 13.04812517 -5.3125 8.75 C-4.4955262 7.26593729 -3.67906543 5.78159197 -2.86328125 4.296875 C-1 1 -1 1 0 0 Z " fill="#FFD34E" transform="translate(817,708)"/>
<path d="M0 0 C0.33 0 0.66 0 1 0 C1.22587773 3.26987035 1.42766605 6.54079281 1.625 9.8125 C1.68945312 10.74126953 1.75390625 11.67003906 1.8203125 12.62695312 C1.871875 13.51962891 1.9234375 14.41230469 1.9765625 15.33203125 C2.02893066 16.15421143 2.08129883 16.9763916 2.13525391 17.82348633 C2 20 2 20 0 23 C-0.93959624 17.70346121 -0.98841115 12.91331483 -0.5625 7.5625 C-0.51029297 6.83095703 -0.45808594 6.09941406 -0.40429688 5.34570312 C-0.27615124 3.56331378 -0.1390184 1.7815743 0 0 Z " fill="#FEE086" transform="translate(993,1327)"/>
</svg>
